<svg width="50" height="50" viewBox="0 0 50 50" fill="none" xmlns="http://www.w3.org/2000/svg">
<path d="M44.1179 19.0476H30.9524V5.88214C30.9524 2.64762 28.2357 0 25 0C21.7643 0 19.0476 2.64762 19.0476 5.88214V19.0476H5.88214C2.64762 19.0476 0 21.7643 0 25C0 28.2357 2.64762 30.9524 5.88214 30.9524H19.0476V44.1179C19.0476 47.3524 21.7643 50 25 50C28.2357 50 30.9524 47.3524 30.9524 44.1179V30.9524H44.1179C47.3524 30.9524 50 28.2357 50 25C50 21.7643 47.3524 19.0476 44.1179 19.0476Z" fill="#384A4D"/>
</svg>
